<?xml version="1.0" standalone="no"?>
<!DOCTYPE svg PUBLIC "-//W3C//DTD SVG 20010904//EN"
 "http://www.w3.org/TR/2001/REC-SVG-20010904/DTD/svg10.dtd">
<svg version="1.0" xmlns="http://www.w3.org/2000/svg"
 width="294.000000pt" height="294.000000pt" viewBox="0 0 294.000000 294.000000"
 preserveAspectRatio="xMidYMid meet">

<g transform="translate(0.000000,294.000000) scale(0.100000,-0.100000)"
fill="#000000" stroke="none">
<path d="M630 2686 c0 -4 342 -994 354 -1026 5 -12 -14 -22 -79 -44 -256 -87
-431 -259 -481 -472 -21 -89 -21 -259 1 -338 31 -117 72 -185 164 -276 98 -97
189 -150 342 -200 318 -104 803 -102 1113 5 300 104 465 291 496 563 37 327
-130 582 -465 708 -38 15 -73 30 -78 34 -4 3 74 240 173 524 99 285 180 520
180 522 0 2 -97 4 -215 4 l-214 0 -16 -52 c-8 -29 -75 -251 -148 -493 l-133
-440 -135 -3 -135 -3 -148 496 -149 495 -213 0 c-118 0 -214 -2 -214 -4z m917
-1238 c-2 -7 -17 -53 -32 -103 l-27 -90 -29 95 c-16 52 -29 98 -29 103 0 4 27
7 61 7 45 0 60 -3 56 -12z m-371 -343 l109 -315 204 2 204 3 104 300 c58 165
109 304 113 309 13 14 125 -30 207 -80 119 -74 183 -162 202 -281 30 -187 -66
-350 -261 -443 -156 -75 -313 -102 -583 -103 -284 0 -444 30 -607 115 -100 51
-166 116 -209 203 -32 65 -34 76 -34 165 0 82 4 103 27 152 58 124 174 210
373 276 17 6 33 11 36 11 4 1 55 -141 115 -314z"/>
</g>
</svg>
